<svg width="234" height="32" viewBox="0 0 234 32" fill="none" xmlns="http://www.w3.org/2000/svg">
<g clip-path="url(#clip0_6502_17271)">
<path d="M17.3821 24.4946L15.3738 18.5586C15.3045 18.3539 15.0968 18.2174 14.889 18.2174H6.50962C6.30186 18.2174 6.09411 18.3539 6.02486 18.5586L4.01657 24.4946C3.94732 24.6993 3.80882 24.8358 3.53181 24.8358H0.484759C0.207754 24.8358 0 24.6311 0 24.3581C0 24.2899 0 24.2217 0.0692513 24.1535L7.54839 2.11508C7.61764 1.91039 7.82539 1.77393 8.03315 1.77393H13.4347C13.6425 1.77393 13.8503 1.91039 13.9195 2.11508L21.4679 24.1535C21.6064 24.4264 21.4679 24.6993 21.1909 24.7675C21.1216 24.7675 21.0524 24.8358 20.9831 24.8358H17.9361C17.5898 24.904 17.4513 24.6993 17.3821 24.4946ZM7.89464 14.8741H13.4347C13.7118 14.8741 13.9195 14.6694 13.9195 14.3965C13.9195 14.3283 13.9195 14.2601 13.9195 14.1918L11.1495 5.79951C11.0802 5.59482 10.8032 5.45836 10.5262 5.52659C10.3877 5.59482 10.2492 5.73128 10.1799 5.86774L7.40988 14.2601C7.34063 14.533 7.47914 14.8059 7.68689 14.9424C7.82539 14.8741 7.89464 14.8741 7.89464 14.8741Z" fill="white"/>
<path d="M24.515 7.84654H27.0081C27.2851 7.84654 27.4928 8.05123 27.4928 8.25592L27.7698 10.0299H27.9776C28.4624 9.27937 29.1549 8.6653 29.9166 8.25592C30.7476 7.84654 31.7172 7.64185 32.6867 7.64185C32.9637 7.64185 33.3099 7.64185 33.5869 7.71008C33.864 7.71008 34.0025 7.983 34.0025 8.18769V10.9169C34.0025 11.1898 33.7947 11.3945 33.5177 11.3945H33.4484C33.1022 11.3945 32.7559 11.3263 32.4097 11.3263C31.5787 11.3263 30.7476 11.4627 29.9859 11.8039C29.2934 12.0768 28.6701 12.4862 28.2546 13.1003C28.1853 13.1685 28.1161 13.305 28.1161 13.4414V24.3583C28.1161 24.6312 27.9083 24.8359 27.6313 24.8359H24.515C24.238 24.8359 24.0303 24.6312 24.0303 24.3583V8.39238C24.0303 8.11946 24.238 7.84654 24.515 7.84654Z" fill="white"/>
<path d="M39.0577 31.8637C38.2959 31.7955 37.4649 31.5908 36.7032 31.4543C36.4954 31.3861 36.3569 31.1814 36.3569 30.9767V28.7933C36.3569 28.5204 36.5647 28.3157 36.8417 28.3157C36.9109 28.3157 36.9109 28.3157 36.9802 28.3157C38.5037 28.7251 40.0272 28.9298 41.5508 28.9298C42.5203 28.9298 43.4898 28.7933 44.3901 28.4522C45.0826 28.1793 45.7058 27.7017 46.0521 27.0194C46.4676 26.2006 46.6061 25.3136 46.6061 24.4266V23.062H46.3983C45.8443 23.6761 45.2211 24.1537 44.4593 24.4948C43.6283 24.836 42.728 25.0407 41.8278 25.0407C40.6505 25.0407 39.4732 24.7678 38.5037 24.1537C37.4649 23.4714 36.6339 22.5844 36.0799 21.4245C35.4566 19.9234 35.1104 18.3541 35.1796 16.7166C35.1796 13.7145 35.9414 11.4629 37.5342 9.89356C39.127 8.32426 41.4815 7.57373 44.5978 7.57373C45.6366 7.57373 46.7446 7.64196 47.7834 7.77842C48.6836 7.91488 49.5147 8.05134 50.4149 8.32426C50.6227 8.39249 50.7612 8.59718 50.7612 8.80187V23.6078C50.8304 25.2454 50.4842 26.8829 49.7917 28.384C49.1684 29.6121 48.1296 30.5673 46.8831 31.1132C45.2903 31.7272 43.6283 32.0002 41.897 32.0002C40.9275 32.0002 40.0272 31.9319 39.0577 31.8637ZM45.1518 21.288C45.6366 21.0833 46.1213 20.8104 46.4676 20.401C46.5368 20.3328 46.6061 20.1963 46.6061 20.0599V11.4629C46.6061 11.1899 46.3983 10.9852 46.1906 10.9852C45.5673 10.8488 44.8748 10.7806 44.2516 10.7806C42.8665 10.7123 41.5508 11.1899 40.5812 12.1452C39.7502 13.0322 39.3347 14.465 39.3347 16.4437C39.3347 18.4223 39.681 19.7187 40.3735 20.5375C41.1352 21.3562 42.174 21.7656 43.282 21.7656C43.9745 21.6974 44.5978 21.5609 45.1518 21.288Z" fill="white"/>
<path d="M68.3505 17.6036H58.7246C58.4476 17.6036 58.2398 17.8083 58.2398 18.1494V18.2177C58.3091 18.9 58.5168 19.6505 58.7938 20.2646C59.1401 20.9469 59.7633 21.4245 60.5251 21.6974C61.4946 22.0386 62.5334 22.175 63.5722 22.1068C64.8187 22.1068 66.0652 21.9703 67.2425 21.6974C67.5195 21.6292 67.7965 21.8339 67.8657 22.1068V22.175V24.2219C67.8657 24.4266 67.7272 24.6313 67.4502 24.6995C65.996 25.0407 64.4724 25.2454 62.9489 25.2454C61.2176 25.3136 59.4863 24.9725 57.8936 24.3584C56.5778 23.7443 55.539 22.7891 54.9158 21.4927C54.2232 19.9234 53.877 18.2177 53.9462 16.4437C53.877 14.8062 54.2232 13.1686 54.8465 11.6676C55.4005 10.4394 56.3008 9.41596 57.4781 8.73366C58.7246 8.05136 60.1788 7.71021 61.6331 7.71021C63.9877 7.71021 65.7882 8.46074 66.9655 9.9618C68.212 11.4629 68.766 13.6462 68.766 16.5801V17.1942C68.9045 17.3989 68.6275 17.6036 68.3505 17.6036ZM59.0708 11.3946C58.4476 12.3499 58.1706 13.5098 58.1706 14.6697C58.1706 14.9426 58.3783 15.1473 58.6553 15.2155H64.4032C64.6802 15.2155 64.8879 15.0108 64.8879 14.7379C64.8879 13.578 64.6109 12.4863 64.0569 11.5311C63.5029 10.7806 62.5334 10.3712 61.5639 10.4394C60.6636 10.2347 59.6941 10.6441 59.0708 11.3946Z" fill="white"/>
<path d="M72.4368 7.84649H74.9299C75.2069 7.84649 75.4146 8.05118 75.4146 8.25587L75.6224 9.62048H75.8301C76.4534 8.93817 77.2844 8.46056 78.1154 8.11941C79.0157 7.77826 79.9852 7.57357 80.9547 7.57357C82.5475 7.50534 84.071 8.05118 85.179 9.14286C86.2178 10.1663 86.7026 11.8038 86.7026 14.0554V24.3582C86.7026 24.6311 86.4948 24.8358 86.2178 24.8358H83.1015C82.8245 24.8358 82.6168 24.6311 82.6168 24.3582V14.2601C82.686 13.3731 82.4782 12.5544 81.9242 11.8721C81.3702 11.3262 80.6085 11.1215 79.7774 11.1215C79.0849 11.1215 78.3232 11.258 77.6999 11.5309C77.0766 11.8038 76.5226 12.2132 76.1071 12.6908C76.0379 12.7591 75.9686 12.8955 75.9686 13.032V24.3582C75.9686 24.6311 75.7609 24.8358 75.4839 24.9041H72.3676C72.0906 24.9041 71.8828 24.6994 71.8828 24.4264V8.39233C72.0213 8.11941 72.2291 7.91472 72.4368 7.84649Z" fill="white"/>
<path d="M101.038 22.1748V24.4264C101.038 24.6311 100.9 24.8358 100.623 24.904C99.7915 25.0405 98.8912 25.1769 98.0602 25.1769C93.9744 25.1769 91.8968 23.13 91.8968 19.1044V11.5991C91.8968 11.3262 91.6891 11.1215 91.4121 11.1215H89.473C89.196 11.1215 88.9883 10.9168 88.9883 10.6439V8.39228C88.9883 8.11936 89.196 7.91466 89.473 7.91466H91.4813C91.7583 7.91466 91.9661 7.70997 91.9661 7.50528L92.5893 2.31978C92.5893 2.04686 92.8664 1.9104 93.0741 1.9104H95.5672C95.8442 1.9104 96.0519 2.11509 96.0519 2.38801V7.43705C96.0519 7.70997 96.2597 7.91466 96.5367 7.91466H100.345C100.623 7.91466 100.83 8.11936 100.83 8.39228V10.6439C100.83 10.9168 100.623 11.1215 100.345 11.1215H96.5367C96.2597 11.1215 96.0519 11.3262 96.0519 11.5991V18.4221C96.0519 19.1044 96.1212 19.7867 96.3982 20.4008C96.6059 20.8784 96.9522 21.2196 97.3677 21.4243C97.9217 21.6289 98.545 21.7654 99.099 21.7654C99.5145 21.7654 99.9992 21.6972 100.415 21.629C100.761 21.629 101.038 21.8336 101.038 22.1748C101.038 22.1066 101.038 22.1066 101.038 22.1748Z" fill="white"/>
<path d="M103.807 4.43488C103.322 4.0255 103.115 3.41142 103.184 2.79735C103.115 2.18328 103.392 1.56921 103.807 1.15982C104.984 0.409291 106.577 0.409291 107.754 1.15982C108.239 1.56921 108.447 2.18328 108.378 2.79735C108.447 3.41142 108.17 4.0255 107.754 4.43488C106.508 5.18541 104.984 5.18541 103.807 4.43488ZM103.669 24.3581V8.39223C103.669 8.11931 103.876 7.91462 104.153 7.91462H107.27C107.547 7.91462 107.754 8.11931 107.754 8.39223V24.3581C107.754 24.631 107.547 24.8357 107.27 24.8357H104.153C103.876 24.8357 103.669 24.631 103.669 24.3581Z" fill="white"/>
<path d="M112.464 7.84649H114.957C115.234 7.84649 115.442 8.05118 115.442 8.25587L115.65 9.62048H115.857C116.481 8.93817 117.312 8.46056 118.143 8.11941C119.043 7.77826 120.013 7.57357 120.982 7.57357C122.575 7.50534 124.098 8.05118 125.206 9.14286C126.245 10.1663 126.73 11.8038 126.73 14.0554V24.3582C126.73 24.6311 126.522 24.8358 126.245 24.8358H123.129C122.852 24.8358 122.644 24.6311 122.644 24.3582V14.2601C122.713 13.3731 122.436 12.5544 121.882 11.8721C121.328 11.3945 120.567 11.1215 119.805 11.1215C119.112 11.1215 118.351 11.258 117.727 11.5309C117.104 11.8038 116.55 12.2132 116.134 12.6908C116.065 12.7591 115.996 12.8955 115.996 13.032V24.3582C115.996 24.6311 115.788 24.8358 115.511 24.8358H112.395C112.118 24.8358 111.91 24.6311 111.91 24.3582V8.39233C111.979 8.11941 112.187 7.91472 112.464 7.84649Z" fill="white"/>
<path d="M140.788 8.2558C141.827 8.66518 142.727 9.41571 143.212 10.3709C143.835 11.5991 144.043 13.0319 143.974 14.3965V24.3581C143.974 24.6311 143.766 24.8358 143.489 24.904H140.996C140.719 24.904 140.511 24.6993 140.511 24.4946L140.304 23.13H140.027C139.542 23.8123 138.849 24.3581 138.018 24.6311C137.187 24.9722 136.218 25.1769 135.317 25.1769C134.279 25.1769 133.309 24.9722 132.409 24.5628C131.647 24.2217 130.955 23.6076 130.539 22.8571C130.124 22.1065 129.847 21.2196 129.916 20.3326C129.847 18.8997 130.47 17.5351 131.578 16.7164C132.686 15.8294 134.417 15.3517 136.772 15.1471L139.957 14.8741V14.1918C140.027 13.5095 139.819 12.759 139.542 12.1449C139.265 11.6673 138.78 11.2579 138.226 11.1215C137.464 10.9168 136.633 10.7803 135.871 10.7803C134.486 10.7803 133.171 10.985 131.855 11.3262C131.578 11.3944 131.301 11.2579 131.232 10.985C131.232 10.9168 131.232 10.9168 131.232 10.8486V8.80164C131.232 8.59695 131.37 8.39226 131.578 8.32403C132.34 8.11934 133.101 7.98288 133.863 7.91465C134.763 7.77819 135.733 7.70996 136.633 7.70996C138.018 7.5735 139.403 7.77819 140.788 8.2558ZM138.434 21.9019C138.988 21.6972 139.403 21.356 139.819 20.9466C139.888 20.8784 139.957 20.7419 139.957 20.6055V17.7398C139.957 17.4669 139.75 17.2622 139.473 17.2622C139.473 17.2622 139.473 17.2622 139.403 17.2622L137.118 17.4669C136.287 17.4669 135.456 17.7398 134.763 18.2174C134.279 18.6268 134.002 19.3091 134.002 19.9232C133.932 20.5372 134.209 21.2196 134.694 21.6289C135.248 22.0383 135.941 22.243 136.633 22.243C137.257 22.243 137.811 22.1065 138.434 21.9019Z" fill="white"/>
<path d="M153.253 23.3347C152.145 22.243 151.66 20.5373 151.66 18.2175V8.80167C151.66 8.32406 152.006 7.98291 152.491 7.98291H156.646C157.131 7.98291 157.477 8.39229 157.477 8.80167V17.8081C157.408 18.4221 157.616 19.0362 157.962 19.5821C158.308 19.9232 158.862 20.1279 159.347 20.1279C159.832 20.1279 160.317 20.0597 160.732 19.855C161.148 19.7185 161.563 19.4456 161.84 19.0362V8.80167C161.84 8.32406 162.256 7.98291 162.671 7.98291H166.757C167.242 7.98291 167.588 8.39229 167.588 8.8699V23.8806C167.588 24.3582 167.172 24.6993 166.757 24.6993H162.81L162.394 23.0618H162.186C160.94 24.2899 159.278 25.0405 157.547 24.9722C156.023 25.1087 154.43 24.4946 153.253 23.3347Z" fill="#37BBED"/>
<path d="M171.259 8.80166C171.259 8.32405 171.674 7.9829 172.09 7.9829H176.037L176.453 9.62042H176.73C177.353 9.00635 178.045 8.52874 178.876 8.18759C179.777 7.84644 180.677 7.70998 181.577 7.70998C183.17 7.64175 184.763 8.25582 185.871 9.3475C186.91 10.4392 187.464 12.1449 187.464 14.533V23.8806C187.464 24.3582 187.048 24.6993 186.633 24.6993H182.547C182.062 24.6993 181.716 24.2899 181.716 23.8806V14.8742C181.785 14.2601 181.577 13.646 181.231 13.1002C180.815 12.759 180.261 12.5543 179.707 12.6226C179.223 12.6226 178.738 12.6908 178.253 12.8955C177.838 13.0319 177.422 13.3049 177.076 13.646V23.8806C177.076 24.3582 176.66 24.6993 176.245 24.6993H172.159C171.674 24.6993 171.328 24.2899 171.328 23.8806L171.259 8.80166Z" fill="#37BBED"/>
<path d="M191.134 5.18561C190.51 4.63977 190.233 3.88924 190.233 3.07047C190.164 2.25171 190.51 1.50118 191.134 0.955335C192.796 -0.0681194 194.804 -0.0681194 196.466 0.955335C197.089 1.50118 197.366 2.31994 197.366 3.07047C197.435 3.88924 197.089 4.708 196.466 5.25384C194.804 6.20907 192.726 6.20907 191.134 5.18561ZM190.857 23.8807V8.80182C190.857 8.3242 191.272 7.98305 191.688 7.98305H195.773C196.258 7.98305 196.604 8.39243 196.604 8.80182V23.8807C196.604 24.3583 196.189 24.6995 195.773 24.6995H191.688C191.272 24.6995 190.857 24.3583 190.857 23.8807Z" fill="#37BBED"/>
<path d="M202.975 24.1535C201.867 23.5394 200.967 22.5842 200.413 21.4243C199.72 19.9232 199.374 18.3539 199.443 16.7164C199.443 13.7825 200.274 11.5991 201.867 10.0299C203.46 8.46055 205.814 7.71002 208.931 7.71002C209.415 7.71002 209.969 7.71002 210.593 7.77825V0.818763C210.593 0.341151 211.008 0 211.424 0H215.51C215.994 0 216.341 0.409382 216.341 0.818763V23.8806C216.341 24.3582 215.925 24.6994 215.51 24.6994H211.493L211.147 22.9936H210.87C210.385 23.6077 209.762 24.1535 209 24.4947C208.169 24.9041 207.338 25.0405 206.438 25.0405C205.26 25.0405 204.083 24.7676 202.975 24.1535ZM209.623 20.1279C210.039 19.9915 210.385 19.7868 210.662 19.5139V12.145C210.108 12.0085 209.554 12.0085 209 12.0085C207.961 11.9403 206.992 12.2815 206.23 13.032C205.607 13.7143 205.33 14.806 205.33 16.307C205.33 17.8081 205.607 18.8998 206.091 19.5139C206.645 20.1279 207.476 20.4691 208.307 20.4009C208.792 20.3326 209.208 20.2644 209.623 20.1279Z" fill="#37BBED"/>
<path d="M230.468 8.39218C231.645 8.80157 232.546 9.62033 233.1 10.712C233.723 12.0766 234 13.5777 233.931 15.147V23.8805C233.931 24.3581 233.515 24.7674 233.1 24.7674H229.222L228.806 23.1982H228.529C228.044 23.8122 227.421 24.3581 226.729 24.631C225.898 24.9721 225.067 25.1086 224.166 25.1086C223.127 25.1086 222.089 24.9039 221.119 24.4945C220.288 24.0851 219.665 23.5393 219.18 22.7888C218.695 22.0382 218.488 21.083 218.488 20.196C218.418 18.695 219.042 17.2621 220.288 16.3751C221.535 15.4199 223.404 14.9423 225.898 14.7376L228.321 14.6011C228.321 14.0553 228.183 13.5777 227.906 13.1001C227.629 12.6907 227.213 12.4178 226.729 12.2813C226.036 12.0766 225.274 12.0084 224.582 12.0084C223.82 12.0084 223.058 12.0766 222.296 12.1448C221.535 12.2131 220.704 12.4178 219.942 12.6225V8.39218C220.842 8.11926 221.812 7.9828 222.712 7.84634C223.681 7.70988 224.651 7.64165 225.621 7.64165C227.283 7.57342 228.945 7.84634 230.468 8.39218ZM227.283 20.9466C227.629 20.8101 227.975 20.6736 228.321 20.4007V17.6033L226.521 17.7397C225.898 17.7397 225.274 17.9444 224.79 18.2856C224.443 18.6267 224.235 19.0361 224.235 19.5137C224.235 19.9913 224.374 20.4007 224.72 20.6736C225.136 20.9466 225.621 21.083 226.105 21.083C226.521 21.083 226.936 21.0148 227.283 20.9466Z" fill="#37BBED"/>
</g>
<defs>
<clipPath id="clip0_6502_17271">
<rect width="234" height="32" fill="white"/>
</clipPath>
</defs>
</svg>
