<svg width="112" height="94" viewBox="0 0 112 94" fill="none" xmlns="http://www.w3.org/2000/svg">
<path d="M60.3998 84.2022H7.77679C6.87651 84.2014 6.01411 83.8458 5.37757 83.2143C4.74103 82.5828 4.38255 81.7272 4.3818 80.8341V42.1011H17.2587L21.8542 46.6601C22.1725 46.9759 22.6044 47.1533 23.0546 47.1533H67.19V50.5214H70.5851V45.4692C70.5851 45.0227 70.4062 44.5941 70.088 44.2784C69.7697 43.9626 69.3377 43.7852 68.8876 43.7852H23.7588L19.1633 39.2262C18.845 38.9104 18.4131 38.733 17.9629 38.733H2.68525C1.74783 38.733 0.987732 39.487 0.987732 40.417V80.8341C0.990005 82.6204 1.70614 84.3323 2.97858 85.5952C4.25172 86.8575 5.97727 87.568 7.7778 87.5703H60.4009L60.3998 84.2022Z" fill="#B8BAB1"/>
<path d="M9.47432 10.1042H23.0545V15.1563C23.0545 16.0863 22.2944 16.8404 21.3569 16.8404C20.4195 16.8404 19.6594 16.0863 19.6594 15.1563V13.4723H16.2644V15.1563C16.2644 16.9614 17.2352 18.6289 18.8107 19.5318C20.3862 20.4339 22.3277 20.4339 23.9032 19.5318C25.4787 18.6288 26.4495 16.9614 26.4495 15.1563V10.1042H55.3073V40.417H58.7023V18.5244H62.0974V40.417H65.4924V16.8404C65.4924 16.3938 65.3136 15.9653 64.9953 15.6495C64.677 15.3337 64.245 15.1563 63.7949 15.1563H58.7023V8.42013C58.7023 7.97356 58.5235 7.54503 58.2052 7.22927C57.8869 6.91352 57.455 6.73609 57.0048 6.73609H26.4495C26.4495 4.32954 25.1551 2.10563 23.0545 0.902167C20.9538 -0.300722 18.365 -0.300722 16.2644 0.902167C14.1637 2.10581 12.8694 4.32973 12.8694 6.73609H7.7768C6.83938 6.73609 6.07928 7.49015 6.07928 8.42013V35.3649H9.47432V10.1042ZM19.6594 3.368C20.5597 3.36875 21.4221 3.72436 22.0586 4.35587C22.6952 4.98737 23.0537 5.84295 23.0544 6.73605H16.2644C16.2651 5.84291 16.6236 4.98735 17.2601 4.35587C17.8967 3.72438 18.7591 3.36875 19.6593 3.368H19.6594Z" fill="#5F6159"/>
<path d="M14.5669 23.5765H17.9619V26.9446H14.5669V23.5765Z" fill="#5F6159"/>
<path d="M21.357 23.5765H50.2148V26.9446H21.357V23.5765Z" fill="#5F6159"/>
<path d="M14.5669 30.3127H50.2148V33.6808H14.5669V30.3127Z" fill="#5F6159"/>
<path d="M26.4494 37.049H50.2147V40.417H26.4494V37.049Z" fill="#5F6159"/>
<path d="M48.5173 13.4723H51.9123V16.8404H48.5173V13.4723Z" fill="#5F6159"/>
<path d="M100.31 56.3712L93.574 74.9055C93.5085 75.0889 93.4755 75.2829 93.4755 75.4776C93.4755 80.1081 97.2585 83.8911 101.889 83.8911H101.896H101.902C106.533 83.8911 110.316 80.1081 110.316 75.4776C110.316 75.2829 110.283 75.0889 110.217 74.9055L103.481 56.3712H100.31ZM101.892 61.8902L101.895 61.9L101.898 61.8902L106.948 75.7671C106.797 78.3346 104.667 80.5231 101.899 80.5231L101.896 80.5238H101.893C99.1238 80.5238 96.9947 78.3353 96.8437 75.7679L101.892 61.8902Z" fill="#B8BAB1"/>
<path d="M85.0323 48.5006C84.097 48.5111 83.349 49.281 83.3663 50.2162V83.8933H86.7351V50.2162C86.7532 49.2667 85.9825 48.4901 85.0323 48.5006H85.0323Z" fill="#B8BAB1"/>
<path d="M78.3195 82.2147C78.3195 82.2147 77.1264 82.1898 75.8829 82.8116C74.6394 83.4333 73.2727 84.7378 73.2727 87.2623V92.3092C73.269 93.2392 74.0208 93.9963 74.9508 94H95.1651C96.0951 93.997 96.8469 93.24 96.8431 92.3092V87.2615C96.8431 84.7859 95.4763 83.4325 94.2329 82.8108C92.9895 82.1891 91.7964 82.2139 91.7964 82.2139L78.3195 82.2147ZM78.3195 85.5835H91.7949C91.7949 85.5835 92.2866 85.5993 92.7272 85.8196C93.1677 86.0399 93.4729 86.3857 93.4729 87.2615L93.4737 90.6304H76.6415V87.2615C76.6415 86.3819 76.9467 86.0399 77.3873 85.8196C77.8279 85.5993 78.3196 85.5835 78.3196 85.5835H78.3195Z" fill="#B8BAB1"/>
<path d="M85.0555 51.8949C80.6205 51.8949 77.4651 52.791 73.9294 53.6226C70.3937 54.4548 66.391 55.2637 59.7948 55.2637C57.5491 55.2637 57.5491 58.6326 59.7948 58.6326C66.6715 58.6326 71.0786 57.7567 74.7 56.9049C78.3214 56.0531 81.0701 55.2638 85.0555 55.2638C89.0408 55.2638 91.7893 56.0524 95.4109 56.9049C99.0323 57.7567 103.439 58.6326 110.316 58.6326C112.562 58.6326 112.562 55.2637 110.316 55.2637C103.72 55.2637 99.7172 54.4548 96.1815 53.6226C92.6465 52.7903 89.4904 51.8949 85.0555 51.8949Z" fill="#B8BAB1"/>
<path d="M69.8009 56.3712L76.5371 74.9055C76.6025 75.0889 76.6356 75.2829 76.6356 75.4776C76.6356 80.1081 72.8526 83.8911 68.2221 83.8911H68.2154H68.2086C63.5781 83.8911 59.7951 80.1081 59.7951 75.4776C59.7951 75.2829 59.8282 75.0889 59.8936 74.9055L66.6298 56.3712H69.8009ZM68.2191 61.8902L68.2161 61.9L68.2131 61.8902L63.1648 75.7671C63.316 78.3346 65.4451 80.5231 68.2139 80.5231H68.2199C70.9889 80.5231 73.1179 78.3346 73.269 75.7671L68.2191 61.8902Z" fill="#B8BAB1"/>
</svg>
