<svg width="112" height="94" viewBox="0 0 112 94" fill="none" xmlns="http://www.w3.org/2000/svg">
<path d="M60.4004 84.2021H7.77734C6.87706 84.2013 6.01466 83.8457 5.37812 83.2142C4.74158 82.5827 4.3831 81.7271 4.38235 80.834V42.101H17.2592L21.8548 46.66C22.173 46.9758 22.605 47.1532 23.0551 47.1532H67.1906V50.5213H70.5856V45.4692C70.5856 45.0226 70.4068 44.5941 70.0885 44.2783C69.7702 43.9626 69.3383 43.7851 68.8881 43.7851H23.7594L19.1638 39.2261C18.8456 38.9103 18.4136 38.7329 17.9635 38.7329H2.6858C1.74838 38.7329 0.988281 39.487 0.988281 40.417V80.834C0.990555 82.6203 1.70669 84.3322 2.97913 85.5952C4.25227 86.8575 5.97782 87.5679 7.77835 87.5702H60.4014L60.4004 84.2021Z" fill="#B8BAB1"/>
<path d="M9.47511 10.1042H23.0553V15.1563C23.0553 16.0863 22.2952 16.8404 21.3577 16.8404C20.4203 16.8404 19.6602 16.0863 19.6602 15.1563V13.4723H16.2652V15.1563C16.2652 16.9614 17.2359 18.6289 18.8115 19.5318C20.387 20.4339 22.3285 20.4339 23.904 19.5318C25.4795 18.6288 26.4503 16.9614 26.4503 15.1563V10.1042H55.3081V40.417H58.7031V18.5244H62.0982V40.417H65.4932V16.8404C65.4932 16.3938 65.3143 15.9653 64.9961 15.6495C64.6778 15.3337 64.2458 15.1563 63.7957 15.1563H58.7031V8.42013C58.7031 7.97356 58.5243 7.54503 58.206 7.22927C57.8877 6.91352 57.4557 6.73609 57.0056 6.73609H26.4503C26.4503 4.32954 25.1559 2.10563 23.0553 0.902167C20.9546 -0.300722 18.3658 -0.300722 16.2652 0.902167C14.1645 2.10581 12.8701 4.32973 12.8701 6.73609H7.7776C6.84018 6.73609 6.08008 7.49015 6.08008 8.42013V35.3649H9.47511V10.1042ZM19.6602 3.368C20.5605 3.36875 21.4229 3.72436 22.0594 4.35587C22.696 4.98737 23.0545 5.84295 23.0552 6.73605H16.2651C16.2659 5.84291 16.6244 4.98735 17.2609 4.35587C17.8975 3.72438 18.7599 3.36875 19.6601 3.368H19.6602Z" fill="#DFE0DA"/>
<path d="M14.5674 23.5767H17.9624V26.9447H14.5674V23.5767Z" fill="#DFE0DA"/>
<path d="M21.3574 23.5767H50.2152V26.9447H21.3574V23.5767Z" fill="#DFE0DA"/>
<path d="M14.5674 30.3127H50.2153V33.6808H14.5674V30.3127Z" fill="#DFE0DA"/>
<path d="M26.4502 37.0488H50.2154V40.4169H26.4502V37.0488Z" fill="#DFE0DA"/>
<path d="M48.5176 13.4724H51.9126V16.8405H48.5176V13.4724Z" fill="#DFE0DA"/>
<path d="M100.311 56.3711L93.5746 74.9054C93.5092 75.0888 93.4761 75.2828 93.4761 75.4775C93.4761 80.108 97.2591 83.891 101.89 83.891H101.896H101.903C106.534 83.891 110.317 80.108 110.317 75.4775C110.317 75.2828 110.284 75.0889 110.218 74.9054L103.482 56.3711H100.311ZM101.893 61.8901L101.896 61.8999L101.899 61.8901L106.948 75.7671C106.797 78.3345 104.668 80.523 101.899 80.523L101.896 80.5237H101.893C99.1244 80.5237 96.9953 78.3353 96.8443 75.7678L101.893 61.8901Z" fill="#B8BAB1"/>
<path d="M85.0325 48.5006C84.0972 48.5111 83.3492 49.281 83.3665 50.2162V83.8933H86.7354V50.2162C86.7534 49.2667 85.9828 48.4901 85.0325 48.5006H85.0325Z" fill="#B8BAB1"/>
<path d="M78.3202 82.2145C78.3202 82.2145 77.1271 82.1897 75.8836 82.8115C74.6401 83.4332 73.2735 84.7376 73.2735 87.2622V92.3091C73.2697 93.2391 74.0215 93.9961 74.9515 93.9999H95.1658C96.0958 93.9969 96.8476 93.2398 96.8439 92.3091V87.2614C96.8439 84.7857 95.4771 83.4324 94.2337 82.8107C92.9902 82.1889 91.7971 82.2138 91.7971 82.2138L78.3202 82.2145ZM78.3202 85.5834H91.7956C91.7956 85.5834 92.2873 85.5992 92.7279 85.8195C93.1685 86.0397 93.4737 86.3856 93.4737 87.2614L93.4744 90.6303H76.6423V87.2614C76.6423 86.3818 76.9475 86.0397 77.388 85.8195C77.8286 85.5992 78.3203 85.5834 78.3203 85.5834H78.3202Z" fill="#B8BAB1"/>
<path d="M85.0562 51.895C80.6213 51.895 77.4659 52.7912 73.9302 53.6227C70.3945 54.4549 66.3918 55.2639 59.7956 55.2639C57.5499 55.2639 57.5499 58.6327 59.7956 58.6327C66.6722 58.6327 71.0794 57.7569 74.7008 56.9051C78.3222 56.0533 81.0709 55.2639 85.0562 55.2639C89.0416 55.2639 91.7901 56.0525 95.4117 56.9051C99.033 57.7569 103.44 58.6327 110.317 58.6327C112.563 58.6327 112.563 55.2639 110.317 55.2639C103.721 55.2639 99.718 54.4549 96.1823 53.6227C92.6473 52.7904 89.4912 51.895 85.0562 51.895V51.895Z" fill="#B8BAB1"/>
<path d="M69.8017 56.3711L76.5379 74.9054C76.6033 75.0888 76.6364 75.2828 76.6364 75.4775C76.6364 80.108 72.8534 83.891 68.2229 83.891H68.2162H68.2094C63.5789 83.891 59.7959 80.108 59.7959 75.4775C59.7959 75.2828 59.829 75.0889 59.8944 74.9054L66.6306 56.3711H69.8017ZM68.2199 61.8901L68.2169 61.8999L68.2139 61.8901L63.1656 75.7671C63.3167 78.3345 65.4459 80.523 68.2147 80.523H68.2207C70.9897 80.523 73.1187 78.3345 73.2698 75.7671L68.2199 61.8901Z" fill="#B8BAB1"/>
</svg>
