<svg width="69" height="133" viewBox="0 0 69 133" fill="none" xmlns="http://www.w3.org/2000/svg">
<g opacity="0.3">
<path d="M62.9273 123.267C62.9273 107.31 61.0579 84.7874 39.7463 68.6341C39.3026 68.2954 38.942 67.8539 38.6934 67.345C38.4449 66.8361 38.3153 66.2741 38.3152 65.704C38.315 65.1345 38.4444 64.5729 38.6931 64.0646C38.9417 63.5563 39.3025 63.1156 39.7463 62.778C61.0773 46.6287 62.9273 25.8179 62.9273 8.14545" stroke="#B8BAB1" stroke-width="2" stroke-linecap="round" stroke-linejoin="round"/>
<path d="M5.76367 123.267C5.76367 105.59 7.63304 84.7874 28.9408 68.6341C29.3856 68.2963 29.7473 67.8551 29.9966 67.3461C30.2459 66.837 30.3758 66.2745 30.3758 65.704C30.3774 65.1338 30.2481 64.5713 29.9987 64.0627C29.7493 63.5541 29.3867 63.1138 28.9408 62.778C7.63304 46.6287 5.76367 25.8179 5.76367 8.14545" stroke="#B8BAB1" stroke-width="2" stroke-linecap="round" stroke-linejoin="round"/>
<path d="M64.2052 125.778H4.60883C3.53982 125.778 2.67322 126.644 2.67322 127.713V130.064C2.67322 131.133 3.53982 132 4.60883 132H64.2052C65.2742 132 66.1408 131.133 66.1408 130.064V127.713C66.1408 126.644 65.2742 125.778 64.2052 125.778Z" stroke="#B8BAB1" stroke-width="2" stroke-linecap="round" stroke-linejoin="round"/>
<path d="M65.9174 1H2.89643C1.84906 1 1 1.84906 1 2.89643V5.20035C1 6.24772 1.84906 7.09678 2.89643 7.09678H65.9174C66.9647 7.09678 67.8138 6.24772 67.8138 5.20035V2.89643C67.8138 1.84906 66.9647 1 65.9174 1Z" stroke="#B8BAB1" stroke-width="2" stroke-linecap="round" stroke-linejoin="round"/>
<path d="M64.5263 7.26918H4.28336C3.77049 7.26918 3.35474 7.68494 3.35474 8.1978V8.44074C3.35474 8.9536 3.77049 9.36936 4.28336 9.36936H64.5263C65.0391 9.36936 65.4549 8.9536 65.4549 8.44074V8.1978C65.4549 7.68494 65.0391 7.26918 64.5263 7.26918Z" fill="#B8BAB1" stroke="#B8BAB1" stroke-width="2" stroke-linecap="round" stroke-linejoin="round"/>
<path d="M64.5263 123.713H4.28336C3.77049 123.713 3.35474 124.129 3.35474 124.642V124.884C3.35474 125.397 3.77049 125.813 4.28336 125.813H64.5263C65.0391 125.813 65.4549 125.397 65.4549 124.884V124.642C65.4549 124.129 65.0391 123.713 64.5263 123.713Z" fill="#B8BAB1" stroke="#B8BAB1" stroke-width="2" stroke-linecap="round" stroke-linejoin="round"/>
<path d="M25.3229 45.4128C26.7143 45.4128 27.8423 44.2848 27.8423 42.8934C27.8423 41.5019 26.7143 40.3739 25.3229 40.3739C23.9315 40.3739 22.8035 41.5019 22.8035 42.8934C22.8035 44.2848 23.9315 45.4128 25.3229 45.4128Z" fill="#242522"/>
<path d="M32.3656 43.0412C33.7571 43.0412 34.885 41.9133 34.885 40.5218C34.885 39.1304 33.7571 38.0024 32.3656 38.0024C30.9742 38.0024 29.8462 39.1304 29.8462 40.5218C29.8462 41.9133 30.9742 43.0412 32.3656 43.0412Z" fill="#242522"/>
<path d="M43.728 54.4042C45.1195 54.4042 46.2475 53.2762 46.2475 51.8847C46.2475 50.4933 45.1195 49.3653 43.728 49.3653C42.3366 49.3653 41.2086 50.4933 41.2086 51.8847C41.2086 53.2762 42.3366 54.4042 43.728 54.4042Z" fill="#B8BAB1"/>
<path d="M31.6023 50.4962C32.9938 50.4962 34.1217 49.3682 34.1217 47.9768C34.1217 46.5853 32.9938 45.4573 31.6023 45.4573C30.2109 45.4573 29.0829 46.5853 29.0829 47.9768C29.0829 49.3682 30.2109 50.4962 31.6023 50.4962Z" fill="white"/>
<path d="M36.6757 56.7757C38.0671 56.7757 39.1951 55.6477 39.1951 54.2562C39.1951 52.8648 38.0671 51.7368 36.6757 51.7368C35.2842 51.7368 34.1562 52.8648 34.1562 54.2562C34.1562 55.6477 35.2842 56.7757 36.6757 56.7757Z" fill="#242522"/>
<path d="M28.839 57.1468C30.2304 57.1468 31.3584 56.0189 31.3584 54.6274C31.3584 53.236 30.2304 52.108 28.839 52.108C27.4476 52.108 26.3196 53.236 26.3196 54.6274C26.3196 56.0189 27.4476 57.1468 28.839 57.1468Z" fill="#242522"/>
<path d="M33.9225 63.4264C35.3139 63.4264 36.4419 62.2984 36.4419 60.9069C36.4419 59.5155 35.3139 58.3875 33.9225 58.3875C32.5311 58.3875 31.4031 59.5155 31.4031 60.9069C31.4031 62.2984 32.5311 63.4264 33.9225 63.4264Z" fill="#B8BAB1"/>
<path d="M34.7164 76.3771C36.1079 76.3771 37.2359 75.2492 37.2359 73.8577C37.2359 72.4663 36.1079 71.3383 34.7164 71.3383C33.325 71.3383 32.197 72.4663 32.197 73.8577C32.197 75.2492 33.325 76.3771 34.7164 76.3771Z" fill="#242522"/>
<path d="M10.8153 120.684C12.2068 120.684 13.3348 119.556 13.3348 118.165C13.3348 116.773 12.2068 115.645 10.8153 115.645C9.42388 115.645 8.2959 116.773 8.2959 118.165C8.2959 119.556 9.42388 120.684 10.8153 120.684Z" fill="white"/>
<path d="M18.2597 120.684C19.6511 120.684 20.7791 119.556 20.7791 118.165C20.7791 116.773 19.6511 115.645 18.2597 115.645C16.8682 115.645 15.7402 116.773 15.7402 118.165C15.7402 119.556 16.8682 120.684 18.2597 120.684Z" fill="white"/>
<path d="M26.0963 120.684C27.4878 120.684 28.6158 119.556 28.6158 118.165C28.6158 116.773 27.4878 115.645 26.0963 115.645C24.7049 115.645 23.5769 116.773 23.5769 118.165C23.5769 119.556 24.7049 120.684 26.0963 120.684Z" fill="#B8BAB1"/>
<path d="M33.9325 120.684C35.324 120.684 36.4519 119.556 36.4519 118.165C36.4519 116.773 35.324 115.645 33.9325 115.645C32.5411 115.645 31.4131 116.773 31.4131 118.165C31.4131 119.556 32.5411 120.684 33.9325 120.684Z" fill="#B8BAB1"/>
<path d="M41.7692 120.684C43.1606 120.684 44.2886 119.556 44.2886 118.165C44.2886 116.773 43.1606 115.645 41.7692 115.645C40.3777 115.645 39.2498 116.773 39.2498 118.165C39.2498 119.556 40.3777 120.684 41.7692 120.684Z" fill="#242522"/>
<path d="M49.9975 120.684C51.3889 120.684 52.5169 119.556 52.5169 118.165C52.5169 116.773 51.3889 115.645 49.9975 115.645C48.606 115.645 47.478 116.773 47.478 118.165C47.478 119.556 48.606 120.684 49.9975 120.684Z" fill="#242522"/>
<path d="M57.4422 120.684C58.8336 120.684 59.9616 119.556 59.9616 118.165C59.9616 116.773 58.8336 115.645 57.4422 115.645C56.0507 115.645 54.9227 116.773 54.9227 118.165C54.9227 119.556 56.0507 120.684 57.4422 120.684Z" fill="#242522"/>
<path d="M14.3414 114.023C15.7329 114.023 16.8609 112.895 16.8609 111.504C16.8609 110.112 15.7329 108.984 14.3414 108.984C12.95 108.984 11.822 110.112 11.822 111.504C11.822 112.895 12.95 114.023 14.3414 114.023Z" fill="white"/>
<path d="M21.7863 114.023C23.1777 114.023 24.3057 112.895 24.3057 111.504C24.3057 110.112 23.1777 108.984 21.7863 108.984C20.3948 108.984 19.2668 110.112 19.2668 111.504C19.2668 112.895 20.3948 114.023 21.7863 114.023Z" fill="white"/>
<path d="M29.6225 114.023C31.0139 114.023 32.1419 112.895 32.1419 111.504C32.1419 110.112 31.0139 108.984 29.6225 108.984C28.231 108.984 27.103 110.112 27.103 111.504C27.103 112.895 28.231 114.023 29.6225 114.023Z" fill="#B8BAB1"/>
<path d="M37.4591 114.023C38.8506 114.023 39.9786 112.895 39.9786 111.504C39.9786 110.112 38.8506 108.984 37.4591 108.984C36.0677 108.984 34.9397 110.112 34.9397 111.504C34.9397 112.895 36.0677 114.023 37.4591 114.023Z" fill="#B8BAB1"/>
<path d="M45.2958 114.023C46.6872 114.023 47.8152 112.895 47.8152 111.504C47.8152 110.112 46.6872 108.984 45.2958 108.984C43.9044 108.984 42.7764 110.112 42.7764 111.504C42.7764 112.895 43.9044 114.023 45.2958 114.023Z" fill="#242522"/>
<path d="M53.1321 114.023C54.5235 114.023 55.6515 112.895 55.6515 111.504C55.6515 110.112 54.5235 108.984 53.1321 108.984C51.7407 108.984 50.6127 110.112 50.6127 111.504C50.6127 112.895 51.7407 114.023 53.1321 114.023Z" fill="#242522"/>
<path d="M26.0963 107.362C27.4878 107.362 28.6158 106.234 28.6158 104.843C28.6158 103.451 27.4878 102.323 26.0963 102.323C24.7049 102.323 23.5769 103.451 23.5769 104.843C23.5769 106.234 24.7049 107.362 26.0963 107.362Z" fill="#B8BAB1"/>
<path d="M33.9325 107.362C35.324 107.362 36.4519 106.234 36.4519 104.843C36.4519 103.451 35.324 102.323 33.9325 102.323C32.5411 102.323 31.4131 103.451 31.4131 104.843C31.4131 106.234 32.5411 107.362 33.9325 107.362Z" fill="#B8BAB1"/>
<path d="M41.7692 107.362C43.1606 107.362 44.2886 106.234 44.2886 104.843C44.2886 103.451 43.1606 102.323 41.7692 102.323C40.3777 102.323 39.2498 103.451 39.2498 104.843C39.2498 106.234 40.3777 107.362 41.7692 107.362Z" fill="#B8BAB1"/>
<path d="M49.6059 107.362C50.9973 107.362 52.1253 106.234 52.1253 104.843C52.1253 103.451 50.9973 102.323 49.6059 102.323C48.2144 102.323 47.0864 103.451 47.0864 104.843C47.0864 106.234 48.2144 107.362 49.6059 107.362Z" fill="#242522"/>
<path d="M53.1321 100.701C54.5235 100.701 55.6515 99.5731 55.6515 98.1816C55.6515 96.7902 54.5235 95.6622 53.1321 95.6622C51.7407 95.6622 50.6127 96.7902 50.6127 98.1816C50.6127 99.5731 51.7407 100.701 53.1321 100.701Z" fill="#242522"/>
<path d="M37.4487 95.9992C38.8402 95.9992 39.9682 94.8712 39.9682 93.4798C39.9682 92.0884 38.8402 90.9604 37.4487 90.9604C36.0573 90.9604 34.9293 92.0884 34.9293 93.4798C34.9293 94.8712 36.0573 95.9992 37.4487 95.9992Z" fill="#B8BAB1"/>
<path d="M26.4882 86.5646C27.8796 86.5646 29.0076 85.4366 29.0076 84.0452C29.0076 82.6537 27.8796 81.5257 26.4882 81.5257C25.0967 81.5257 23.9688 82.6537 23.9688 84.0452C23.9688 85.4366 25.0967 86.5646 26.4882 86.5646Z" fill="white"/>
<path d="M56.6587 107.362C58.0502 107.362 59.1781 106.234 59.1781 104.843C59.1781 103.451 58.0502 102.323 56.6587 102.323C55.2673 102.323 54.1393 103.451 54.1393 104.843C54.1393 106.234 55.2673 107.362 56.6587 107.362Z" fill="#242522"/>
<path d="M27.6741 37.1638C29.0655 37.1638 30.1935 36.0359 30.1935 34.6444C30.1935 33.253 29.0655 32.125 27.6741 32.125C26.2827 32.125 25.1547 33.253 25.1547 34.6444C25.1547 36.0359 26.2827 37.1638 27.6741 37.1638Z" fill="#B8BAB1"/>
<path d="M20.6314 36.4008C22.0228 36.4008 23.1508 35.2728 23.1508 33.8814C23.1508 32.49 22.0228 31.362 20.6314 31.362C19.2399 31.362 18.1119 32.49 18.1119 33.8814C18.1119 35.2728 19.2399 36.4008 20.6314 36.4008Z" fill="#242522"/>
<path d="M13.8406 32.2388C15.232 32.2388 16.36 31.1109 16.36 29.7194C16.36 28.328 15.232 27.2 13.8406 27.2C12.4492 27.2 11.3212 28.328 11.3212 29.7194C11.3212 31.1109 12.4492 32.2388 13.8406 32.2388Z" fill="#DFE0DA"/>
<path d="M35.5104 35.9884C36.9018 35.9884 38.0298 34.8605 38.0298 33.469C38.0298 32.0776 36.9018 30.9496 35.5104 30.9496C34.119 30.9496 32.991 32.0776 32.991 33.469C32.991 34.8605 34.119 35.9884 35.5104 35.9884Z" fill="#242522"/>
<path d="M38.624 49.3207C40.0155 49.3207 41.1435 48.1928 41.1435 46.8013C41.1435 45.4099 40.0155 44.2819 38.624 44.2819C37.2326 44.2819 36.1046 45.4099 36.1046 46.8013C36.1046 48.1928 37.2326 49.3207 38.624 49.3207Z" fill="#242522"/>
<path d="M39.8103 42.67C41.2018 42.67 42.3297 41.542 42.3297 40.1506C42.3297 38.7591 41.2018 37.6312 39.8103 37.6312C38.4189 37.6312 37.2909 38.7591 37.2909 40.1506C37.2909 41.542 38.4189 42.67 39.8103 42.67Z" fill="#DFE0DA"/>
<path d="M45.6773 37.927C47.0687 37.927 48.1967 36.799 48.1967 35.4075C48.1967 34.0161 47.0687 32.8881 45.6773 32.8881C44.2858 32.8881 43.1578 34.0161 43.1578 35.4075C43.1578 36.799 44.2858 37.927 45.6773 37.927Z" fill="#B8BAB1"/>
<path d="M53.122 39.8964C54.5134 39.8964 55.6414 38.7684 55.6414 37.3769C55.6414 35.9855 54.5134 34.8575 53.122 34.8575C51.7305 34.8575 50.6025 35.9855 50.6025 37.3769C50.6025 38.7684 51.7305 39.8964 53.122 39.8964Z" fill="#B8BAB1"/>
<path d="M50.7813 32.0496C52.1727 32.0496 53.3007 30.9216 53.3007 29.5301C53.3007 28.1387 52.1727 27.0107 50.7813 27.0107C49.3898 27.0107 48.2618 28.1387 48.2618 29.5301C48.2618 30.9216 49.3898 32.0496 50.7813 32.0496Z" fill="white"/>
<path d="M46.8732 25.7804C48.2646 25.7804 49.3926 24.6524 49.3926 23.261C49.3926 21.8695 48.2646 20.7415 46.8732 20.7415C45.4817 20.7415 44.3538 21.8695 44.3538 23.261C44.3538 24.6524 45.4817 25.7804 46.8732 25.7804Z" fill="#242522"/>
<path d="M30.0039 29.3171C31.3954 29.3171 32.5234 28.1891 32.5234 26.7976C32.5234 25.4062 31.3954 24.2782 30.0039 24.2782C28.6125 24.2782 27.4845 25.4062 27.4845 26.7976C27.4845 28.1891 28.6125 29.3171 30.0039 29.3171Z" fill="#242522"/>
<path d="M42.1612 20.7072C43.5526 20.7072 44.6806 19.5793 44.6806 18.1878C44.6806 16.7964 43.5526 15.6684 42.1612 15.6684C40.7697 15.6684 39.6417 16.7964 39.6417 18.1878C39.6417 19.5793 40.7697 20.7072 42.1612 20.7072Z" fill="white"/>
<path d="M41.7692 31.2556C43.1606 31.2556 44.2886 30.1276 44.2886 28.7362C44.2886 27.3448 43.1606 26.2168 41.7692 26.2168C40.3777 26.2168 39.2498 27.3448 39.2498 28.7362C39.2498 30.1276 40.3777 31.2556 41.7692 31.2556Z" fill="#242522"/>
<path d="M36.6548 25.7804C38.0462 25.7804 39.1742 24.6524 39.1742 23.261C39.1742 21.8695 38.0462 20.7415 36.6548 20.7415C35.2634 20.7415 34.1354 21.8695 34.1354 23.261C34.1354 24.6524 35.2634 25.7804 36.6548 25.7804Z" fill="#B8BAB1"/>
<path d="M48.4304 47.3513C49.8219 47.3513 50.9499 46.2233 50.9499 44.8319C50.9499 43.4404 49.8219 42.3125 48.4304 42.3125C47.039 42.3125 45.911 43.4404 45.911 44.8319C45.911 46.2233 47.039 47.3513 48.4304 47.3513Z" fill="#242522"/>
<path d="M18.2702 43.8455C19.6616 43.8455 20.7896 42.7175 20.7896 41.3261C20.7896 39.9346 19.6616 38.8067 18.2702 38.8067C16.8787 38.8067 15.7507 39.9346 15.7507 41.3261C15.7507 42.7175 16.8787 43.8455 18.2702 43.8455Z" fill="#B8BAB1"/>
<path d="M23.364 52.0738C24.7555 52.0738 25.8835 50.9458 25.8835 49.5544C25.8835 48.1629 24.7555 47.035 23.364 47.035C21.9726 47.035 20.8446 48.1629 20.8446 49.5544C20.8446 50.9458 21.9726 52.0738 23.364 52.0738Z" fill="#B8BAB1"/>
</g>
</svg>
