<svg width="210" height="30" viewBox="0 0 210 30" fill="none" xmlns="http://www.w3.org/2000/svg">
<path d="M12.8802 14.8805L11.9964 15.7644H11.9964L12.8802 14.8805ZM5.88388 6.11649C5.39572 5.62834 4.60426 5.62835 4.11611 6.11651C3.62796 6.60467 3.62796 7.39612 4.11612 7.88427L5.88388 6.11649ZM17.1193 14.8805L18.0032 15.7644H18.0032L17.1193 14.8805ZM25.8839 7.88389C26.372 7.39574 26.372 6.60429 25.8839 6.11613C25.3957 5.62797 24.6043 5.62796 24.1161 6.11611L25.8839 7.88389ZM13.7641 13.9966L5.88388 6.11649L4.11612 7.88427L11.9964 15.7644L13.7641 13.9966ZM18.0032 15.7644L25.8839 7.88389L24.1161 6.11611L16.2354 13.9966L18.0032 15.7644ZM11.9964 15.7644C13.6561 17.4241 16.3435 17.4241 18.0032 15.7644L16.2354 13.9966C15.552 14.68 14.4475 14.68 13.7641 13.9966L11.9964 15.7644Z" fill="#B8BAB1"/>
<rect x="3.25" y="5.25" width="23.5" height="21.5" rx="2.75" stroke="#B8BAB1" stroke-width="2.5"/>
<path d="M66.505 16.8117L67.2773 11.7622H62.406V8.49488C62.406 7.12854 63.0594 5.82161 65.1981 5.82161H67.3961V1.48498C67.3961 1.48498 65.4357 1.12854 63.4753 1.12854C59.4951 1.12854 56.8812 3.50478 56.8812 7.90082V11.7028H52.4258V16.7523H56.8812V28.9305H62.3466V16.8117H66.505Z" fill="#B8BAB1"/>
<path d="M115.188 9.74274C115.188 9.98036 115.188 10.218 115.188 10.3962C115.188 17.3467 109.901 25.3665 100.218 25.3665C97.2476 25.3665 94.4555 24.5348 92.1387 22.9903C92.6139 23.0497 92.9704 23.0497 93.4456 23.0497C95.9407 23.0497 98.1981 22.218 99.9803 20.7922C97.6634 20.7328 95.703 19.1883 95.109 17.1091C95.406 17.2279 95.7624 17.2279 96.0595 17.2279C96.5347 17.2279 97.01 17.1685 97.4852 17.0497C95.0496 16.515 93.2674 14.4358 93.2674 11.8814V11.8219C93.9209 12.2378 94.8119 12.416 95.6436 12.4754C94.2179 11.5249 93.2674 9.92096 93.2674 8.07937C93.2674 7.12888 93.5644 6.23779 93.9803 5.4061C96.5941 8.61403 100.456 10.6932 104.852 10.9309C104.792 10.515 104.733 10.1586 104.733 9.74274C104.733 6.83185 107.109 4.51501 109.96 4.51501C111.505 4.51501 112.812 5.10907 113.762 6.17838C114.951 5.88135 116.079 5.46551 117.089 4.81204C116.673 6.05957 115.842 7.06947 114.772 7.72294C115.842 7.60412 116.852 7.30709 117.802 6.95066C117.149 8.07937 116.198 8.97046 115.188 9.74274Z" fill="#B8BAB1"/>
<path d="M150.03 8.49495C146.406 8.49495 143.555 11.4058 143.555 14.9702C143.555 18.5346 146.465 21.4454 150.03 21.4454C153.594 21.4454 156.505 18.5346 156.505 14.9702C156.505 11.4058 153.594 8.49495 150.03 8.49495ZM150.03 19.2474C147.713 19.2474 145.812 17.3464 145.812 15.0296C145.812 12.7128 147.713 10.8118 150.03 10.8118C152.347 10.8118 154.248 12.7128 154.248 15.0296C154.248 17.3464 152.347 19.2474 150.03 19.2474ZM158.287 8.25733C158.287 9.08901 157.634 9.80188 156.743 9.80188C155.911 9.80188 155.198 9.14842 155.198 8.25733C155.198 7.36624 155.852 6.71277 156.743 6.71277C157.634 6.71277 158.287 7.42564 158.287 8.25733ZM162.565 9.80188C162.505 7.72267 162.03 5.94049 160.545 4.45535C159.06 2.9702 157.277 2.49495 155.258 2.43554C153.178 2.31673 146.881 2.31673 144.802 2.43554C142.723 2.49495 140.941 2.9702 139.456 4.45535C137.97 5.94049 137.495 7.72267 137.436 9.74247C137.317 11.8811 137.317 18.1187 137.436 20.1979C137.495 22.2771 137.97 24.0593 139.456 25.5445C140.941 27.0296 142.723 27.5048 144.743 27.5643C146.822 27.6831 153.119 27.6831 155.198 27.5643C157.218 27.4454 159 27.0296 160.485 25.5445C161.97 24.0593 162.446 22.2771 162.505 20.2573C162.683 18.1187 162.683 11.8811 162.565 9.80188ZM159.891 22.4553C159.475 23.5841 158.584 24.4157 157.456 24.891C155.792 25.5445 151.812 25.4256 149.97 25.4256C148.129 25.4256 144.149 25.5445 142.485 24.891C141.357 24.4751 140.525 23.5841 140.05 22.4553C139.456 20.792 139.634 16.8712 139.634 15.0296C139.634 13.188 139.515 9.20782 140.168 7.54446C140.584 6.41574 141.475 5.58406 142.604 5.10881C144.267 4.45535 148.248 4.57416 150.089 4.57416C151.931 4.57416 155.792 4.45535 157.456 5.10881C158.584 5.52465 159.416 6.41574 159.891 7.54446C160.545 9.20782 160.426 13.188 160.426 15.0296C160.426 16.8712 160.545 20.792 159.891 22.4553Z" fill="#B8BAB1"/>
<path d="M203.66 2H186.314C184.476 2 183 3.41733 183 5.15235V22.8477C183 24.5827 184.502 26 186.34 26H203.66C205.498 26 207 24.5827 207 22.8477V5.15235C206.974 3.41733 205.498 2 203.66 2ZM198.353 14.3669L193.097 17.6415C192.657 17.9347 192.036 17.617 192.036 17.1039V10.5304C192.036 10.0172 192.631 9.72394 193.097 9.99274L198.353 13.2917C198.767 13.5361 198.767 14.0981 198.353 14.3669Z" fill="#B8BAB1"/>
</svg>
