<svg width="202" height="123" viewBox="0 0 202 123" fill="none" xmlns="http://www.w3.org/2000/svg">
<g clip-path="url(#clip0_2748_215809)">
<path d="M7.19291 88V76.804L8.56091 77.884L5.15891 79.972V76.714L8.56091 74.626H10.7209V88H7.19291ZM16.4684 74.5C17.2004 74.5 17.8694 74.62 18.4754 74.86C19.0814 75.094 19.6034 75.469 20.0414 75.985C20.4794 76.495 20.8184 77.164 21.0584 77.992C21.2984 78.82 21.4184 79.822 21.4184 80.998C21.4184 82.66 21.1544 84.022 20.6264 85.084C20.1044 86.14 19.3634 86.92 18.4034 87.424C17.4434 87.928 16.3124 88.18 15.0104 88.18C14.5664 88.18 14.1314 88.156 13.7054 88.108C13.2794 88.06 12.9104 87.976 12.5984 87.856V85.048C12.9764 85.156 13.3424 85.234 13.6964 85.282C14.0504 85.33 14.4524 85.354 14.9024 85.354C15.5864 85.354 16.1534 85.234 16.6034 84.994C17.0594 84.754 17.3984 84.376 17.6204 83.86C17.8484 83.338 17.9624 82.66 17.9624 81.826V80.332C17.9624 79.684 17.9264 79.153 17.8544 78.739C17.7824 78.325 17.6804 78.004 17.5484 77.776C17.4164 77.548 17.2544 77.389 17.0624 77.299C16.8764 77.209 16.6664 77.164 16.4324 77.164C16.1924 77.164 15.9734 77.218 15.7754 77.326C15.5774 77.434 15.4184 77.605 15.2984 77.839C15.1784 78.067 15.1184 78.364 15.1184 78.73C15.1184 79.084 15.1784 79.375 15.2984 79.603C15.4244 79.825 15.5954 79.99 15.8114 80.098C16.0274 80.206 16.2764 80.26 16.5584 80.26C16.8044 80.26 17.0474 80.224 17.2874 80.152C17.5334 80.08 17.7644 79.966 17.9804 79.81C18.1964 79.648 18.3884 79.438 18.5564 79.18V81.7C18.2744 82.09 17.8874 82.387 17.3954 82.591C16.9034 82.789 16.3844 82.888 15.8384 82.888C15.1544 82.888 14.5154 82.75 13.9214 82.474C13.3274 82.192 12.8474 81.754 12.4814 81.16C12.1154 80.566 11.9324 79.798 11.9324 78.856C11.9324 77.938 12.1244 77.155 12.5084 76.507C12.8924 75.859 13.4234 75.364 14.1014 75.022C14.7854 74.674 15.5744 74.5 16.4684 74.5ZM27.5754 88.18C26.4654 88.18 25.5384 88.027 24.7944 87.721C24.0504 87.409 23.4894 86.983 23.1114 86.443C22.7394 85.903 22.5534 85.288 22.5534 84.598C22.5534 83.902 22.7664 83.272 23.1924 82.708C23.6184 82.144 24.2634 81.688 25.1274 81.34L27.3054 82.33C26.8014 82.528 26.4294 82.816 26.1894 83.194C25.9494 83.566 25.8294 83.932 25.8294 84.292C25.8294 84.73 25.9764 85.072 26.2704 85.318C26.5644 85.558 26.9994 85.678 27.5754 85.678C28.1634 85.678 28.5924 85.57 28.8624 85.354C29.1324 85.132 29.2674 84.832 29.2674 84.454C29.2674 84.184 29.1984 83.95 29.0604 83.752C28.9284 83.554 28.6884 83.365 28.3404 83.185C27.9984 83.005 27.5094 82.81 26.8734 82.6C25.8594 82.264 25.0584 81.883 24.4704 81.457C23.8824 81.031 23.4624 80.554 23.2104 80.026C22.9644 79.498 22.8414 78.916 22.8414 78.28C22.8414 77.518 23.0304 76.855 23.4084 76.291C23.7924 75.721 24.3444 75.28 25.0644 74.968C25.7904 74.656 26.6694 74.5 27.7014 74.5C29.0874 74.5 30.1884 74.809 31.0044 75.427C31.8264 76.039 32.2374 76.876 32.2374 77.938C32.2374 78.34 32.1684 78.736 32.0304 79.126C31.8924 79.516 31.6614 79.888 31.3374 80.242C31.0194 80.59 30.5814 80.908 30.0234 81.196L27.9534 80.206C28.4154 79.906 28.7454 79.597 28.9434 79.279C29.1474 78.961 29.2494 78.604 29.2494 78.208C29.2494 77.812 29.1174 77.512 28.8534 77.308C28.5894 77.104 28.2174 77.002 27.7374 77.002C27.2334 77.002 26.8464 77.113 26.5764 77.335C26.3064 77.551 26.1714 77.83 26.1714 78.172C26.1714 78.43 26.2314 78.655 26.3514 78.847C26.4714 79.033 26.7024 79.219 27.0444 79.405C27.3924 79.585 27.9054 79.798 28.5834 80.044C29.6034 80.41 30.4014 80.794 30.9774 81.196C31.5534 81.598 31.9584 82.051 32.1924 82.555C32.4264 83.053 32.5434 83.632 32.5434 84.292C32.5434 85.06 32.3454 85.738 31.9494 86.326C31.5534 86.908 30.9834 87.364 30.2394 87.694C29.5014 88.018 28.6134 88.18 27.5754 88.18ZM36.2217 88.18C35.7117 88.18 35.2047 88.147 34.7007 88.081C34.2027 88.021 33.7137 87.928 33.2337 87.802V85.066C33.6837 85.18 34.1757 85.27 34.7097 85.336C35.2437 85.396 35.7177 85.426 36.1317 85.426C36.8817 85.426 37.4157 85.312 37.7337 85.084C38.0577 84.85 38.2197 84.496 38.2197 84.022C38.2197 83.554 38.0487 83.203 37.7067 82.969C37.3707 82.735 36.7977 82.618 35.9877 82.618H34.3317V79.792H35.8977C36.6117 79.792 37.1127 79.678 37.4007 79.45C37.6947 79.216 37.8417 78.898 37.8417 78.496C37.8417 78.07 37.6947 77.758 37.4007 77.56C37.1127 77.356 36.6297 77.254 35.9517 77.254C35.5197 77.254 35.0727 77.293 34.6107 77.371C34.1487 77.443 33.7317 77.548 33.3597 77.686V74.95C33.6237 74.86 33.9297 74.782 34.2777 74.716C34.6257 74.644 34.9887 74.59 35.3667 74.554C35.7447 74.518 36.1077 74.5 36.4557 74.5C38.0217 74.5 39.2037 74.809 40.0017 75.427C40.8057 76.045 41.2077 76.93 41.2077 78.082C41.2077 78.898 41.0007 79.582 40.5867 80.134C40.1787 80.68 39.6057 81.034 38.8677 81.196V81.088C39.7797 81.238 40.4607 81.592 40.9107 82.15C41.3607 82.702 41.5857 83.41 41.5857 84.274C41.5857 85.108 41.3757 85.816 40.9557 86.398C40.5357 86.98 39.9237 87.424 39.1197 87.73C38.3217 88.03 37.3557 88.18 36.2217 88.18Z" fill="#8A8F15"/>
<path d="M160.009 45V31.68H163.537V36.594H167.191V31.68H170.719V45H167.191V39.816H163.537V45H160.009ZM177.786 45.18C176.646 45.18 175.641 44.946 174.771 44.478C173.901 44.004 173.22 43.266 172.728 42.264C172.236 41.256 171.99 39.948 171.99 38.34C171.99 36.732 172.236 35.427 172.728 34.425C173.22 33.417 173.901 32.679 174.771 32.211C175.641 31.737 176.646 31.5 177.786 31.5C178.926 31.5 179.931 31.737 180.801 32.211C181.671 32.679 182.352 33.417 182.844 34.425C183.336 35.427 183.582 36.732 183.582 38.34C183.582 39.948 183.336 41.256 182.844 42.264C182.352 43.266 181.671 44.004 180.801 44.478C179.931 44.946 178.926 45.18 177.786 45.18ZM177.786 42.264C178.248 42.264 178.638 42.141 178.956 41.895C179.28 41.649 179.526 41.247 179.694 40.689C179.862 40.125 179.946 39.366 179.946 38.412C179.946 37.41 179.862 36.618 179.694 36.036C179.526 35.454 179.28 35.04 178.956 34.794C178.638 34.542 178.248 34.416 177.786 34.416C177.324 34.416 176.931 34.539 176.607 34.785C176.289 35.025 176.046 35.427 175.878 35.991C175.71 36.555 175.626 37.314 175.626 38.268C175.626 39.27 175.71 40.062 175.878 40.644C176.046 41.226 176.289 41.643 176.607 41.895C176.931 42.141 177.324 42.264 177.786 42.264ZM187.022 45V38.016L187.742 40.86L182.792 31.68H186.482L189.344 37.17H188.444L191.324 31.68H194.708L189.83 40.86L190.55 38.07V45H187.022Z" fill="#8A8F15"/>
<rect x="15" y="4" width="41" height="35" rx="3" stroke="#8A8F15" stroke-width="2"/>
<rect x="21.2173" y="10" width="29" height="8" rx="1" stroke="#8A8F15" stroke-width="2"/>
<line x1="21.0435" y1="27.7826" x2="50.3478" y2="27.7826" stroke="#8A8F15" stroke-width="2" stroke-linecap="round"/>
<line x1="21.0435" y1="23.4348" x2="50.3478" y2="23.4348" stroke="#8A8F15" stroke-width="2" stroke-linecap="round"/>
<line x1="21" y1="32" x2="41" y2="32" stroke="#8A8F15" stroke-width="2" stroke-linecap="round"/>
<rect x="58" y="82" width="42" height="23" rx="3" stroke="#F2F3D2" stroke-width="2"/>
<line x1="64.3042" y1="88.8262" x2="93.6086" y2="88.8262" stroke="#F2F3D2" stroke-width="2" stroke-linecap="round"/>
<line x1="64.3042" y1="93.1738" x2="93.6086" y2="93.1738" stroke="#F2F3D2" stroke-width="2" stroke-linecap="round"/>
<line x1="64.3042" y1="97.5217" x2="87.5216" y2="97.5217" stroke="#F2F3D2" stroke-width="2" stroke-linecap="round"/>
<rect x="146" y="88" width="42" height="32" rx="3" stroke="#8A8F15" stroke-width="2"/>
<line x1="152" y1="95" x2="166" y2="95" stroke="#8A8F15" stroke-width="2" stroke-linecap="round"/>
<line x1="152.391" y1="110" x2="181.695" y2="110" stroke="#8A8F15" stroke-width="2" stroke-linecap="round"/>
<line x1="152.391" y1="100" x2="181.695" y2="100" stroke="#8A8F15" stroke-width="2" stroke-linecap="round"/>
<line x1="152" y1="115" x2="177" y2="115" stroke="#8A8F15" stroke-width="2" stroke-linecap="round"/>
<path d="M152 105H174" stroke="#8A8F15" stroke-width="2" stroke-linecap="round"/>
<rect x="102.217" y="5" width="41.4783" height="24.9565" rx="3" stroke="#F2F3D2" stroke-width="2"/>
<rect x="107" y="11" width="13" height="13" rx="1" stroke="#F2F3D2" stroke-width="2"/>
<line x1="124.826" y1="13" x2="137.609" y2="13" stroke="#F2F3D2" stroke-width="2" stroke-linecap="round"/>
<line x1="124.826" y1="17.3479" x2="137.609" y2="17.3479" stroke="#F2F3D2" stroke-width="2" stroke-linecap="round"/>
<line x1="124.826" y1="21.6957" x2="137.609" y2="21.6957" stroke="#F2F3D2" stroke-width="2" stroke-linecap="round"/>
<line x1="7" y1="60" x2="165" y2="60" stroke="#F2F3D2" stroke-width="4" stroke-linecap="round"/>
<circle cx="167" cy="60" r="5" fill="#D7DF23" stroke="#8A8F15" stroke-width="4"/>
<circle cx="123" cy="30" r="2" fill="#F2F3D2" stroke="#D7DF23" stroke-width="4"/>
<circle cx="35" cy="40" r="2" fill="#F2F3D2" stroke="#D7DF23" stroke-width="4"/>
<circle cx="167" cy="88" r="2" transform="rotate(-180 167 88)" fill="#F2F3D2" stroke="#D7DF23" stroke-width="4"/>
<circle cx="79" cy="81" r="2" transform="rotate(-180 79 81)" fill="#F2F3D2" stroke="#D7DF23" stroke-width="4"/>
<line x1="35" y1="40" x2="35" y2="59" stroke="#8A8F15" stroke-width="4" stroke-linecap="round"/>
<path d="M79 81L79 57" stroke="#F2F3D2" stroke-width="4" stroke-linecap="round"/>
<path d="M123 30L123 60" stroke="#F2F3D2" stroke-width="4" stroke-linecap="round"/>
<path d="M167 88L167 65" stroke="#8A8F15" stroke-width="4" stroke-linecap="round"/>
<circle cx="79" cy="60" r="5" fill="#D7DF23" stroke="#F2F3D2" stroke-width="4"/>
<circle cx="35" cy="60" r="5" fill="#D7DF23" stroke="#8A8F15" stroke-width="4"/>
<circle cx="123" cy="60" r="5" fill="#D7DF23" stroke="#F2F3D2" stroke-width="4"/>
</g>
<defs>
<clipPath id="clip0_2748_215809">
<rect width="202" height="123" fill="white"/>
</clipPath>
</defs>
</svg>
