<svg width="333" height="123" viewBox="0 0 333 123" fill="none" xmlns="http://www.w3.org/2000/svg">
<g clip-path="url(#clip0_4288_222506)">
<path d="M23.381 97V84.56L24.901 85.76L21.121 88.08V84.46L24.901 82.14H27.301V97H23.381ZM33.6871 82C34.5004 82 35.2438 82.1333 35.9171 82.4C36.5904 82.66 37.1704 83.0767 37.6571 83.65C38.1438 84.2167 38.5204 84.96 38.7871 85.88C39.0538 86.8 39.1871 87.9133 39.1871 89.22C39.1871 91.0667 38.8938 92.58 38.3071 93.76C37.7271 94.9333 36.9038 95.8 35.8371 96.36C34.7704 96.92 33.5138 97.2 32.0671 97.2C31.5738 97.2 31.0904 97.1733 30.6171 97.12C30.1438 97.0667 29.7338 96.9733 29.3871 96.84V93.72C29.8071 93.84 30.2138 93.9267 30.6071 93.98C31.0004 94.0333 31.4471 94.06 31.9471 94.06C32.7071 94.06 33.3371 93.9267 33.8371 93.66C34.3438 93.3933 34.7204 92.9733 34.9671 92.4C35.2204 91.82 35.3471 91.0667 35.3471 90.14V88.48C35.3471 87.76 35.3071 87.17 35.2271 86.71C35.1471 86.25 35.0338 85.8933 34.8871 85.64C34.7404 85.3867 34.5604 85.21 34.3471 85.11C34.1404 85.01 33.9071 84.96 33.6471 84.96C33.3804 84.96 33.1371 85.02 32.9171 85.14C32.6971 85.26 32.5204 85.45 32.3871 85.71C32.2538 85.9633 32.1871 86.2933 32.1871 86.7C32.1871 87.0933 32.2538 87.4167 32.3871 87.67C32.5271 87.9167 32.7171 88.1 32.9571 88.22C33.1971 88.34 33.4738 88.4 33.7871 88.4C34.0604 88.4 34.3304 88.36 34.5971 88.28C34.8704 88.2 35.1271 88.0733 35.3671 87.9C35.6071 87.72 35.8204 87.4867 36.0071 87.2V90C35.6938 90.4333 35.2638 90.7633 34.7171 90.99C34.1704 91.21 33.5938 91.32 32.9871 91.32C32.2271 91.32 31.5171 91.1667 30.8571 90.86C30.1971 90.5467 29.6638 90.06 29.2571 89.4C28.8504 88.74 28.6471 87.8867 28.6471 86.84C28.6471 85.82 28.8604 84.95 29.2871 84.23C29.7138 83.51 30.3038 82.96 31.0571 82.58C31.8171 82.1933 32.6938 82 33.6871 82ZM46.0282 97.2C44.7949 97.2 43.7649 97.03 42.9382 96.69C42.1115 96.3433 41.4882 95.87 41.0682 95.27C40.6549 94.67 40.4482 93.9867 40.4482 93.22C40.4482 92.4467 40.6849 91.7467 41.1582 91.12C41.6315 90.4933 42.3482 89.9867 43.3082 89.6L45.7282 90.7C45.1682 90.92 44.7549 91.24 44.4882 91.66C44.2215 92.0733 44.0882 92.48 44.0882 92.88C44.0882 93.3667 44.2515 93.7467 44.5782 94.02C44.9049 94.2867 45.3882 94.42 46.0282 94.42C46.6815 94.42 47.1582 94.3 47.4582 94.06C47.7582 93.8133 47.9082 93.48 47.9082 93.06C47.9082 92.76 47.8315 92.5 47.6782 92.28C47.5315 92.06 47.2649 91.85 46.8782 91.65C46.4982 91.45 45.9549 91.2333 45.2482 91C44.1215 90.6267 43.2315 90.2033 42.5782 89.73C41.9249 89.2567 41.4582 88.7267 41.1782 88.14C40.9049 87.5533 40.7682 86.9067 40.7682 86.2C40.7682 85.3533 40.9782 84.6167 41.3982 83.99C41.8249 83.3567 42.4382 82.8667 43.2382 82.52C44.0449 82.1733 45.0215 82 46.1682 82C47.7082 82 48.9315 82.3433 49.8382 83.03C50.7515 83.71 51.2082 84.64 51.2082 85.82C51.2082 86.2667 51.1315 86.7067 50.9782 87.14C50.8249 87.5733 50.5682 87.9867 50.2082 88.38C49.8549 88.7667 49.3682 89.12 48.7482 89.44L46.4482 88.34C46.9615 88.0067 47.3282 87.6633 47.5482 87.31C47.7749 86.9567 47.8882 86.56 47.8882 86.12C47.8882 85.68 47.7415 85.3467 47.4482 85.12C47.1549 84.8933 46.7415 84.78 46.2082 84.78C45.6482 84.78 45.2182 84.9033 44.9182 85.15C44.6182 85.39 44.4682 85.7 44.4682 86.08C44.4682 86.3667 44.5349 86.6167 44.6682 86.83C44.8015 87.0367 45.0582 87.2433 45.4382 87.45C45.8249 87.65 46.3949 87.8867 47.1482 88.16C48.2815 88.5667 49.1682 88.9933 49.8082 89.44C50.4482 89.8867 50.8982 90.39 51.1582 90.95C51.4182 91.5033 51.5482 92.1467 51.5482 92.88C51.5482 93.7333 51.3282 94.4867 50.8882 95.14C50.4482 95.7867 49.8149 96.2933 48.9882 96.66C48.1682 97.02 47.1815 97.2 46.0282 97.2ZM55.6352 97.2C55.0686 97.2 54.5052 97.1633 53.9452 97.09C53.3919 97.0233 52.8486 96.92 52.3152 96.78V93.74C52.8152 93.8667 53.3619 93.9667 53.9552 94.04C54.5486 94.1067 55.0752 94.14 55.5352 94.14C56.3686 94.14 56.9619 94.0133 57.3152 93.76C57.6752 93.5 57.8552 93.1067 57.8552 92.58C57.8552 92.06 57.6652 91.67 57.2852 91.41C56.9119 91.15 56.2752 91.02 55.3752 91.02H53.5352V87.88H55.2752C56.0686 87.88 56.6252 87.7533 56.9452 87.5C57.2719 87.24 57.4352 86.8867 57.4352 86.44C57.4352 85.9667 57.2719 85.62 56.9452 85.4C56.6252 85.1733 56.0886 85.06 55.3352 85.06C54.8552 85.06 54.3586 85.1033 53.8452 85.19C53.3319 85.27 52.8686 85.3867 52.4552 85.54V82.5C52.7486 82.4 53.0886 82.3133 53.4752 82.24C53.8619 82.16 54.2652 82.1 54.6852 82.06C55.1052 82.02 55.5086 82 55.8952 82C57.6352 82 58.9486 82.3433 59.8352 83.03C60.7286 83.7167 61.1752 84.7 61.1752 85.98C61.1752 86.8867 60.9452 87.6467 60.4852 88.26C60.0319 88.8667 59.3952 89.26 58.5752 89.44V89.32C59.5886 89.4867 60.3452 89.88 60.8452 90.5C61.3452 91.1133 61.5952 91.9 61.5952 92.86C61.5952 93.7867 61.3619 94.5733 60.8952 95.22C60.4286 95.8667 59.7486 96.36 58.8552 96.7C57.9686 97.0333 56.8952 97.2 55.6352 97.2Z" fill="#D7DF23"/>
<path d="M282.097 54V39.2H286.017V44.66H290.077V39.2H293.997V54H290.077V48.24H286.017V54H282.097ZM301.849 54.2C300.582 54.2 299.466 53.94 298.499 53.42C297.532 52.8933 296.776 52.0733 296.229 50.96C295.682 49.84 295.409 48.3867 295.409 46.6C295.409 44.8133 295.682 43.3633 296.229 42.25C296.776 41.13 297.532 40.31 298.499 39.79C299.466 39.2633 300.582 39 301.849 39C303.116 39 304.232 39.2633 305.199 39.79C306.166 40.31 306.922 41.13 307.469 42.25C308.016 43.3633 308.289 44.8133 308.289 46.6C308.289 48.3867 308.016 49.84 307.469 50.96C306.922 52.0733 306.166 52.8933 305.199 53.42C304.232 53.94 303.116 54.2 301.849 54.2ZM301.849 50.96C302.362 50.96 302.796 50.8233 303.149 50.55C303.509 50.2767 303.782 49.83 303.969 49.21C304.156 48.5833 304.249 47.74 304.249 46.68C304.249 45.5667 304.156 44.6867 303.969 44.04C303.782 43.3933 303.509 42.9333 303.149 42.66C302.796 42.38 302.362 42.24 301.849 42.24C301.336 42.24 300.899 42.3767 300.539 42.65C300.186 42.9167 299.916 43.3633 299.729 43.99C299.542 44.6167 299.449 45.46 299.449 46.52C299.449 47.6333 299.542 48.5133 299.729 49.16C299.916 49.8067 300.186 50.27 300.539 50.55C300.899 50.8233 301.336 50.96 301.849 50.96ZM312.111 54V46.24L312.911 49.4L307.411 39.2H311.511L314.691 45.3H313.691L316.891 39.2H320.651L315.231 49.4L316.031 46.3V54H312.111Z" fill="#D7DF23"/>
<rect x="21" y="11" width="41" height="35" rx="3" stroke="#D7DF23" stroke-width="2"/>
<rect x="27.2168" y="17" width="29" height="8" rx="1" stroke="#D7DF23" stroke-width="2"/>
<line x1="27.043" y1="34.7827" x2="56.3473" y2="34.7827" stroke="#D7DF23" stroke-width="2" stroke-linecap="round"/>
<line x1="27.043" y1="30.4348" x2="56.3473" y2="30.4348" stroke="#D7DF23" stroke-width="2" stroke-linecap="round"/>
<line x1="27" y1="39" x2="47" y2="39" stroke="#D7DF23" stroke-width="2" stroke-linecap="round"/>
<rect x="82" y="-2" width="42" height="39" rx="3" stroke="#5F6309" stroke-width="2"/>
<line x1="88.1309" y1="19" x2="117.435" y2="19" stroke="#5F6309" stroke-width="2" stroke-linecap="round"/>
<line x1="88.1309" y1="4" x2="117.435" y2="4" stroke="#5F6309" stroke-width="2" stroke-linecap="round"/>
<line x1="88.1309" y1="24" x2="117.435" y2="24" stroke="#5F6309" stroke-width="2" stroke-linecap="round"/>
<line x1="88.1309" y1="9" x2="117.435" y2="9" stroke="#5F6309" stroke-width="2" stroke-linecap="round"/>
<line x1="88" y1="29" x2="112" y2="29" stroke="#5F6309" stroke-width="2" stroke-linecap="round"/>
<line x1="88" y1="14" x2="105" y2="14" stroke="#5F6309" stroke-width="2" stroke-linecap="round"/>
<rect x="144" y="89" width="42" height="23" rx="3" stroke="#D7DF23" stroke-width="2"/>
<line x1="150.305" y1="95.8262" x2="179.609" y2="95.8262" stroke="#D7DF23" stroke-width="2" stroke-linecap="round"/>
<line x1="150.305" y1="100.174" x2="179.609" y2="100.174" stroke="#D7DF23" stroke-width="2" stroke-linecap="round"/>
<line x1="150.305" y1="104.522" x2="173.522" y2="104.522" stroke="#D7DF23" stroke-width="2" stroke-linecap="round"/>
<rect x="268" y="95" width="42" height="32" rx="3" stroke="#D7DF23" stroke-width="2"/>
<line x1="274" y1="102" x2="288" y2="102" stroke="#D7DF23" stroke-width="2" stroke-linecap="round"/>
<line x1="274.391" y1="117" x2="303.695" y2="117" stroke="#D7DF23" stroke-width="2" stroke-linecap="round"/>
<line x1="274.391" y1="107" x2="303.695" y2="107" stroke="#D7DF23" stroke-width="2" stroke-linecap="round"/>
<line x1="274" y1="122" x2="299" y2="122" stroke="#D7DF23" stroke-width="2" stroke-linecap="round"/>
<path d="M274 112H296" stroke="#D7DF23" stroke-width="2" stroke-linecap="round"/>
<rect x="206.217" y="12" width="41.4783" height="24.9565" rx="3" stroke="#5F6309" stroke-width="2"/>
<rect x="211" y="18" width="13" height="13" rx="1" stroke="#5F6309" stroke-width="2"/>
<line x1="228.826" y1="20" x2="241.609" y2="20" stroke="#5F6309" stroke-width="2" stroke-linecap="round"/>
<line x1="228.826" y1="24.3479" x2="241.609" y2="24.3479" stroke="#5F6309" stroke-width="2" stroke-linecap="round"/>
<line x1="228.826" y1="28.6958" x2="241.609" y2="28.6958" stroke="#5F6309" stroke-width="2" stroke-linecap="round"/>
<line x1="20" y1="67" x2="287" y2="67" stroke="#5F6309" stroke-width="4" stroke-linecap="round"/>
<circle cx="289" cy="67" r="5" fill="#8A8F15" stroke="#D7DF23" stroke-width="4"/>
<circle cx="103" cy="37" r="2" fill="#5F6309" stroke="#8A8F15" stroke-width="4"/>
<circle cx="227" cy="37" r="2" fill="#5F6309" stroke="#8A8F15" stroke-width="4"/>
<circle cx="165" cy="88" r="2" transform="rotate(-180 165 88)" fill="#5F6309" stroke="#D7DF23" stroke-width="4"/>
<circle cx="289" cy="95" r="2" transform="rotate(-180 289 95)" fill="#5F6309" stroke="#D7DF23" stroke-width="4"/>
<circle cx="41" cy="46" r="2" fill="#5F6309" stroke="#D7DF23" stroke-width="4"/>
<line x1="41" y1="47" x2="41" y2="66" stroke="#D7DF23" stroke-width="4" stroke-linecap="round"/>
<path d="M103 37L103 67" stroke="#5F6309" stroke-width="4" stroke-linecap="round"/>
<path d="M165 88L165 64" stroke="#D7DF23" stroke-width="4" stroke-linecap="round"/>
<path d="M227 37L227 67" stroke="#5F6309" stroke-width="4" stroke-linecap="round"/>
<path d="M289 95L289 72" stroke="#D7DF23" stroke-width="4" stroke-linecap="round"/>
<circle cx="103" cy="67" r="5" fill="#8A8F15" stroke="#5F6309" stroke-width="4"/>
<circle cx="165" cy="67" r="5" fill="#8A8F15" stroke="#D7DF23" stroke-width="4"/>
<circle cx="41" cy="67" r="5" fill="#8A8F15" stroke="#D7DF23" stroke-width="4"/>
<circle cx="227" cy="67" r="5" fill="#8A8F15" stroke="#5F6309" stroke-width="4"/>
</g>
<defs>
<clipPath id="clip0_4288_222506">
<rect width="333" height="123" fill="white"/>
</clipPath>
</defs>
</svg>
